<mxfile host="app.diagrams.net" modified="2023-10-11T06:07:19.821Z" agent="Mozilla/5.0 (Windows NT 10.0; WOW64) AppleWebKit/537.36 (KHTML, like Gecko) Chrome/94.0.4606.71 Safari/537.36 Core/1.94.178.400 QQBrowser/11.2.5170.400" etag="PcnSBfvUFwJmloJOYX_4" version="21.7.2" type="github">
  <diagram name="第 1 页" id="33Ult-0uDZ268MRI2GR5">
    <mxGraphModel dx="2261" dy="765" grid="1" gridSize="10" guides="1" tooltips="1" connect="1" arrows="1" fold="1" page="1" pageScale="1" pageWidth="827" pageHeight="1169" background="#E0E0E0" math="0" shadow="0">
      <root>
        <mxCell id="0" />
        <mxCell id="1" parent="0" />
        <mxCell id="xQB5OxpWkgxvrszIEVJN-4" style="rounded=0;orthogonalLoop=1;jettySize=auto;html=1;exitX=0.5;exitY=1;exitDx=0;exitDy=0;entryX=0.5;entryY=0;entryDx=0;entryDy=0;entryPerimeter=0;" edge="1" parent="1" source="xQB5OxpWkgxvrszIEVJN-1" target="xQB5OxpWkgxvrszIEVJN-3">
          <mxGeometry relative="1" as="geometry">
            <mxPoint x="-750" y="240" as="targetPoint" />
          </mxGeometry>
        </mxCell>
        <mxCell id="xQB5OxpWkgxvrszIEVJN-5" value="电信VPN专线" style="edgeLabel;html=1;align=center;verticalAlign=middle;resizable=0;points=[];" vertex="1" connectable="0" parent="xQB5OxpWkgxvrszIEVJN-4">
          <mxGeometry x="-0.0509" y="-2" relative="1" as="geometry">
            <mxPoint as="offset" />
          </mxGeometry>
        </mxCell>
        <mxCell id="xQB5OxpWkgxvrszIEVJN-6" style="edgeStyle=orthogonalEdgeStyle;rounded=0;orthogonalLoop=1;jettySize=auto;html=1;exitX=1;exitY=0.5;exitDx=0;exitDy=0;" edge="1" parent="1" source="xQB5OxpWkgxvrszIEVJN-1" target="xQB5OxpWkgxvrszIEVJN-2">
          <mxGeometry relative="1" as="geometry" />
        </mxCell>
        <mxCell id="xQB5OxpWkgxvrszIEVJN-1" value="互联网医院（电信云）" style="rounded=1;whiteSpace=wrap;html=1;" vertex="1" parent="1">
          <mxGeometry x="-800" y="30" width="120" height="60" as="geometry" />
        </mxCell>
        <mxCell id="xQB5OxpWkgxvrszIEVJN-8" style="edgeStyle=orthogonalEdgeStyle;rounded=0;orthogonalLoop=1;jettySize=auto;html=1;exitX=0.5;exitY=1;exitDx=0;exitDy=0;entryX=0.5;entryY=0;entryDx=0;entryDy=0;entryPerimeter=0;" edge="1" parent="1" source="xQB5OxpWkgxvrszIEVJN-2" target="xQB5OxpWkgxvrszIEVJN-7">
          <mxGeometry relative="1" as="geometry" />
        </mxCell>
        <mxCell id="xQB5OxpWkgxvrszIEVJN-2" value="智慧医院（电信云）" style="rounded=1;whiteSpace=wrap;html=1;" vertex="1" parent="1">
          <mxGeometry x="-620" y="30" width="120" height="60" as="geometry" />
        </mxCell>
        <mxCell id="xQB5OxpWkgxvrszIEVJN-3" value="电信DMZ16数据库" style="shape=cylinder3;whiteSpace=wrap;html=1;boundedLbl=1;backgroundOutline=1;size=15;" vertex="1" parent="1">
          <mxGeometry x="-770" y="230" width="60" height="80" as="geometry" />
        </mxCell>
        <mxCell id="xQB5OxpWkgxvrszIEVJN-7" value="电信云DB" style="shape=cylinder3;whiteSpace=wrap;html=1;boundedLbl=1;backgroundOutline=1;size=15;" vertex="1" parent="1">
          <mxGeometry x="-590" y="150" width="60" height="80" as="geometry" />
        </mxCell>
        <mxCell id="xQB5OxpWkgxvrszIEVJN-17" style="edgeStyle=orthogonalEdgeStyle;rounded=0;orthogonalLoop=1;jettySize=auto;html=1;exitX=0.5;exitY=1;exitDx=0;exitDy=0;" edge="1" parent="1" source="xQB5OxpWkgxvrszIEVJN-9" target="xQB5OxpWkgxvrszIEVJN-10">
          <mxGeometry relative="1" as="geometry" />
        </mxCell>
        <mxCell id="xQB5OxpWkgxvrszIEVJN-20" value="迁移，不用院内联通DMZ的数据库" style="edgeLabel;html=1;align=center;verticalAlign=middle;resizable=0;points=[];" vertex="1" connectable="0" parent="xQB5OxpWkgxvrszIEVJN-17">
          <mxGeometry x="-0.1692" y="1" relative="1" as="geometry">
            <mxPoint as="offset" />
          </mxGeometry>
        </mxCell>
        <mxCell id="xQB5OxpWkgxvrszIEVJN-18" style="edgeStyle=orthogonalEdgeStyle;rounded=0;orthogonalLoop=1;jettySize=auto;html=1;exitX=0;exitY=0.5;exitDx=0;exitDy=0;entryX=0.5;entryY=1;entryDx=0;entryDy=0;entryPerimeter=0;curved=1;shape=arrow;" edge="1" parent="1" source="xQB5OxpWkgxvrszIEVJN-9" target="xQB5OxpWkgxvrszIEVJN-7">
          <mxGeometry relative="1" as="geometry" />
        </mxCell>
        <mxCell id="xQB5OxpWkgxvrszIEVJN-19" value="迁移，不用院内联通DMZ的数据库" style="edgeLabel;html=1;align=center;verticalAlign=middle;resizable=0;points=[];" vertex="1" connectable="0" parent="xQB5OxpWkgxvrszIEVJN-18">
          <mxGeometry x="-0.3333" y="-80" relative="1" as="geometry">
            <mxPoint as="offset" />
          </mxGeometry>
        </mxCell>
        <mxCell id="xQB5OxpWkgxvrszIEVJN-9" value="渝康健服务&lt;br&gt;（联通DMZ152）" style="rounded=1;whiteSpace=wrap;html=1;" vertex="1" parent="1">
          <mxGeometry x="-380" y="310" width="120" height="60" as="geometry" />
        </mxCell>
        <mxCell id="xQB5OxpWkgxvrszIEVJN-10" value="联通DMZ153" style="shape=cylinder3;whiteSpace=wrap;html=1;boundedLbl=1;backgroundOutline=1;size=15;" vertex="1" parent="1">
          <mxGeometry x="-350" y="435" width="60" height="80" as="geometry" />
        </mxCell>
        <mxCell id="xQB5OxpWkgxvrszIEVJN-15" style="edgeStyle=orthogonalEdgeStyle;rounded=0;orthogonalLoop=1;jettySize=auto;html=1;exitX=0.5;exitY=1;exitDx=0;exitDy=0;entryX=0.5;entryY=0;entryDx=0;entryDy=0;" edge="1" parent="1" source="xQB5OxpWkgxvrszIEVJN-12" target="xQB5OxpWkgxvrszIEVJN-9">
          <mxGeometry relative="1" as="geometry" />
        </mxCell>
        <mxCell id="xQB5OxpWkgxvrszIEVJN-12" value="卫生专网" style="rounded=1;whiteSpace=wrap;html=1;" vertex="1" parent="1">
          <mxGeometry x="-380" y="170" width="120" height="60" as="geometry" />
        </mxCell>
        <mxCell id="xQB5OxpWkgxvrszIEVJN-14" style="edgeStyle=orthogonalEdgeStyle;rounded=0;orthogonalLoop=1;jettySize=auto;html=1;exitX=0.5;exitY=1;exitDx=0;exitDy=0;" edge="1" parent="1" source="xQB5OxpWkgxvrszIEVJN-13" target="xQB5OxpWkgxvrszIEVJN-12">
          <mxGeometry relative="1" as="geometry" />
        </mxCell>
        <mxCell id="xQB5OxpWkgxvrszIEVJN-13" value="联仁" style="rounded=1;whiteSpace=wrap;html=1;" vertex="1" parent="1">
          <mxGeometry x="-380" y="30" width="120" height="60" as="geometry" />
        </mxCell>
        <mxCell id="xQB5OxpWkgxvrszIEVJN-21" value="&lt;h1&gt;代码版本&lt;/h1&gt;&lt;p&gt;（1）微信+支付宝一套代码&lt;/p&gt;&lt;p&gt;（2）银医项目独立部署和维护一套代码（完全隔离）&lt;/p&gt;&lt;p&gt;（3）渝康健用户体系改造后的一套代码（支付宝渠道建设的代码需要合并过来）&lt;/p&gt;" style="text;html=1;strokeColor=none;fillColor=none;spacing=5;spacingTop=-20;whiteSpace=wrap;overflow=hidden;rounded=0;" vertex="1" parent="1">
          <mxGeometry x="-170" y="40" width="310" height="140" as="geometry" />
        </mxCell>
        <mxCell id="xQB5OxpWkgxvrszIEVJN-23" value="&lt;h1&gt;部署规划&lt;/h1&gt;&lt;p&gt;（1）支付宝渠道建设第一版上线，继续沿用上面（1）的代码版本&lt;/p&gt;&lt;p&gt;（2）银医项目独立部署和维护一套代码（完全隔离）&lt;/p&gt;&lt;p&gt;（3）渝康健用户体系改造后的一套代码（支付宝渠道建设的代码需要合并过来）&lt;br&gt;&lt;/p&gt;&lt;p&gt;（4）支付宝渠道建设，后续设备就位后，部署代码使用上面（3）的代码版本，且后续更多渠道接入，都是用此版本。此版本的数据库与线上微信公众号的互联网医院与智慧医院保持一致。&lt;/p&gt;&lt;p&gt;&lt;/p&gt;" style="text;html=1;strokeColor=none;fillColor=none;spacing=5;spacingTop=-20;whiteSpace=wrap;overflow=hidden;rounded=0;" vertex="1" parent="1">
          <mxGeometry x="-170" y="210" width="390" height="200" as="geometry" />
        </mxCell>
      </root>
    </mxGraphModel>
  </diagram>
</mxfile>
